<svg version="1.1" xmlns="http://www.w3.org/2000/svg" viewBox="0 0 1448 1068" width="1448" height="1068"><!-- svg-source:excalidraw --><metadata></metadata><defs><style class="style-fonts">
      </style></defs><rect x="0" y="0" width="1448" height="1068" fill="#ffffff"></rect><g transform="translate(24 24) rotate(0 344.96000000000004 17.5)"><text x="0" y="25.060546875" font-family="Helvetica, Segoe UI Emoji" font-size="28px" fill="#1e1e1e" text-anchor="start" style="white-space: pre;" direction="ltr" dominant-baseline="alphabetic">05 · Verification environment and remote lab</text></g><g transform="translate(24 66) rotate(0 385.28000000000003 10)"><text x="0" y="14.3203125" font-family="Helvetica, Segoe UI Emoji" font-size="16px" fill="#868e96" text-anchor="start" style="white-space: pre;" direction="ltr" dominant-baseline="alphabetic">v0 — provisional until the ISA spec is frozen at G0 (Oct 11). Boundaries: CLAUDE.md §3</text></g><g transform="translate(24 114) rotate(0 252 11.25)"><text x="0" y="16.1103515625" font-family="Helvetica, Segoe UI Emoji" font-size="18px" fill="#1e1e1e" text-anchor="start" style="white-space: pre;" direction="ltr" dominant-baseline="alphabetic">A. Simulation and formal (run in CI on every push)</text></g><g stroke-linecap="round" transform="translate(24 154) rotate(0 640 220)"><path d="M32 0 C280.25 0.3, 526.92 0.48, 1248 0 M1248 0 C1270.52 -1.14, 1281.89 8.76, 1280 32 M1280 32 C1276.75 177.89, 1277.23 325.84, 1280 408 M1280 408 C1278.75 429, 1268.41 439.86, 1248 440 M1248 440 C962.41 435.75, 676.73 436.63, 32 440 M32 440 C8.84 440.81, -1.33 431.02, 0 408 M0 408 C-0.73 315.23, 0.57 223.66, 0 32 M0 32 C-1.52 9.74, 12.35 -1.61, 32 0" stroke="#868e96" stroke-width="2.5" fill="none" stroke-dasharray="8 10"></path></g><g transform="translate(489.28 162) rotate(0 174.72000000000003 10)"><text x="174.72000000000003" y="14.3203125" font-family="Helvetica, Segoe UI Emoji" font-size="16px" fill="#1e1e1e" text-anchor="middle" style="white-space: pre;" direction="ltr" dominant-baseline="alphabetic">test/  —  cocotb 2.0.1 + Icarus Verilog</text></g><g stroke-linecap="round" transform="translate(54 204) rotate(0 115 30)"><path d="M15 0 C59.05 -0.55, 109.06 -2.47, 215 0 C223.8 1.73, 227.72 1.82, 230 15 C229.59 24.09, 228.82 41.75, 230 45 C229.11 55.27, 226.56 60.04, 215 60 C157.61 60.48, 93.36 59.82, 15 60 C6.99 59.79, 1.49 53.89, 0 45 C-0.99 34.22, -3.09 26.34, 0 15 C-0.91 6.82, 3.95 0.2, 15 0" stroke="none" stroke-width="0" fill="#ffec99"></path><path d="M15 0 C75.9 -0.35, 137.74 -1.14, 215 0 M15 0 C59.84 -1.46, 104.15 -0.4, 215 0 M215 0 C226.49 -0.99, 229.88 4.51, 230 15 M215 0 C225.32 -0.2, 228.21 6.66, 230 15 M230 15 C230.33 22.22, 231.46 30.26, 230 45 M230 15 C229.52 23.3, 230.28 31.54, 230 45 M230 45 C228.81 54.92, 223.54 61.33, 215 60 M230 45 C232.24 56.07, 223.43 59.13, 215 60 M215 60 C154.45 61, 90.17 59.88, 15 60 M215 60 C173 58.56, 132.4 59.82, 15 60 M15 60 C4.13 59.97, 1.89 56.81, 0 45 M15 60 C2.93 58.83, 1.23 53.27, 0 45 M0 45 C-0.18 35.61, 1.5 26.29, 0 15 M0 45 C-0.39 34.25, -0.96 24.1, 0 15 M0 15 C1.95 6.34, 4.59 0.65, 15 0 M0 15 C0.03 3.85, 4.14 -0.75, 15 0" stroke="#e8590c" stroke-width="2" fill="none"></path></g><g transform="translate(88.35999999999999 214) rotate(0 80.64 20)"><text x="80.64000000000001" y="14.3203125" font-family="Helvetica, Segoe UI Emoji" font-size="16px" fill="#1e1e1e" text-anchor="middle" style="white-space: pre;" direction="ltr" dominant-baseline="alphabetic">Firmware</text><text x="80.64000000000001" y="34.3203125" font-family="Helvetica, Segoe UI Emoji" font-size="16px" fill="#1e1e1e" text-anchor="middle" style="white-space: pre;" direction="ltr" dominant-baseline="alphabetic">sw/firmware/*.pasm</text></g><g stroke-linecap="round" transform="translate(54 284) rotate(0 115 30)"><path d="M15 0 C87.98 1.07, 162.74 1.7, 215 0 C223 -0.79, 231 7.3, 230 15 C229 24.08, 226.69 36.98, 230 45 C227.56 57, 227.5 57.93, 215 60 C143.74 60.24, 68.05 61.04, 15 60 C8.3 57.91, 1.5 57.91, 0 45 C0.75 35.63, 3.06 26.47, 0 15 C0.52 3.63, 3.06 2.97, 15 0" stroke="none" stroke-width="0" fill="#ffec99"></path><path d="M15 0 C59.13 -1.03, 102.15 -1.68, 215 0 M15 0 C62.98 -0.14, 111.9 0.81, 215 0 M215 0 C225.78 0.64, 230.12 4.73, 230 15 M215 0 C227.14 1.63, 228.85 3.28, 230 15 M230 15 C227.85 24.05, 231.23 32.39, 230 45 M230 15 C229.14 24.87, 230.9 33.46, 230 45 M230 45 C231.57 55.31, 223.38 60.68, 215 60 M230 45 C229.3 56.37, 224.77 61.32, 215 60 M215 60 C158.23 61.48, 103.87 59.34, 15 60 M215 60 C136.59 60.61, 59.32 59.97, 15 60 M15 60 C5.58 61.82, -0.27 54.29, 0 45 M15 60 C3.21 58.23, -0.01 56.43, 0 45 M0 45 C0.75 31.9, 0.56 21.66, 0 15 M0 45 C-0.51 34.84, -0.19 27.16, 0 15 M0 15 C-1.15 4.76, 6.56 1.01, 15 0 M0 15 C1.59 3.71, 4.48 -2.28, 15 0" stroke="#e8590c" stroke-width="2" fill="none"></path></g><g transform="translate(61.47999999999999 294) rotate(0 107.52 20)"><text x="107.52000000000001" y="14.3203125" font-family="Helvetica, Segoe UI Emoji" font-size="16px" fill="#1e1e1e" text-anchor="middle" style="white-space: pre;" direction="ltr" dominant-baseline="alphabetic">Random program generator</text><text x="107.52000000000001" y="34.3203125" font-family="Helvetica, Segoe UI Emoji" font-size="16px" fill="#1e1e1e" text-anchor="middle" style="white-space: pre;" direction="ltr" dominant-baseline="alphabetic">(seeded)</text></g><g stroke-linecap="round" transform="translate(364 244) rotate(0 100 30)"><path d="M15 0 C67.5 -0.35, 122.89 1.92, 185 0 C192.49 -3.03, 201.38 6.86, 200 15 C200.57 18.69, 203.3 29.13, 200 45 C201.07 52.29, 195.28 59.1, 185 60 C139.36 58.21, 90.47 58.75, 15 60 C4.58 61.87, -2.96 56.24, 0 45 C1.32 35.94, 1.09 29.6, 0 15 C-1.79 1.52, 2.89 3.52, 15 0" stroke="none" stroke-width="0" fill="#ffec99"></path><path d="M15 0 C69.38 0.57, 125.41 1.3, 185 0 M15 0 C57.83 -0.95, 100.76 -0.02, 185 0 M185 0 C193.08 1.92, 200.36 5.19, 200 15 M185 0 C193.19 0.15, 198.71 6.51, 200 15 M200 15 C200.23 21.33, 200.98 29.37, 200 45 M200 15 C199.66 27.68, 199.56 39.76, 200 45 M200 45 C198 54.29, 193.68 59.88, 185 60 M200 45 C198.21 55.13, 193.57 57.89, 185 60 M185 60 C137.51 60.17, 92.52 60.28, 15 60 M185 60 C119.78 61.62, 56.05 61.19, 15 60 M15 60 C3.79 61.73, 0.11 53.11, 0 45 M15 60 C5.21 58.72, -0.55 54.62, 0 45 M0 45 C0.06 37.11, 1.65 26.45, 0 15 M0 45 C0.18 36.4, 0.42 28.84, 0 15 M0 15 C0.35 3.77, 5.93 -0.24, 15 0 M0 15 C0.41 6.87, 5.43 -2.05, 15 0" stroke="#e8590c" stroke-width="2" fill="none"></path></g><g transform="translate(423.68 254) rotate(0 40.32000000000002 20)"><text x="40.32000000000001" y="14.3203125" font-family="Helvetica, Segoe UI Emoji" font-size="16px" fill="#1e1e1e" text-anchor="middle" style="white-space: pre;" direction="ltr" dominant-baseline="alphabetic">Assembler</text><text x="40.32000000000001" y="34.3203125" font-family="Helvetica, Segoe UI Emoji" font-size="16px" fill="#1e1e1e" text-anchor="middle" style="white-space: pre;" direction="ltr" dominant-baseline="alphabetic">sw/asm</text></g><g stroke-linecap="round" transform="translate(644 244) rotate(0 120 30)"><path d="M15 0 C78.32 -0.04, 134.22 0.63, 225 0 C236.75 3.42, 239.64 7.35, 240 15 C240.55 28.32, 243.85 34.55, 240 45 C242.1 54.64, 234.97 61.18, 225 60 C159.21 58.16, 92.78 57.61, 15 60 C3.04 62.99, 3.19 57.36, 0 45 C1.71 35.48, -1.12 21.36, 0 15 C-2.3 8.13, 7.7 -2.28, 15 0" stroke="none" stroke-width="0" fill="#a5d8ff"></path><path d="M15 0 C81.97 -0.58, 147.29 -0.36, 225 0 M15 0 C62.19 -0.27, 109.52 -0.88, 225 0 M225 0 C236.23 0.2, 239.97 6.63, 240 15 M225 0 C234.48 -1.39, 239.65 3.25, 240 15 M240 15 C238.01 21.26, 241.68 30.54, 240 45 M240 15 C240.78 23.93, 240.52 32.58, 240 45 M240 45 C241.88 56.03, 235.55 59.42, 225 60 M240 45 C238.25 53.62, 236.57 58.13, 225 60 M225 60 C170.44 62.22, 119.78 60.99, 15 60 M225 60 C155.01 58.67, 85.75 59.31, 15 60 M15 60 C4.07 61.19, -1.57 53.85, 0 45 M15 60 C7.05 58.34, -1.67 52.9, 0 45 M0 45 C1.38 35.37, -1.38 27.51, 0 15 M0 45 C-0.72 37.8, 0.66 28.33, 0 15 M0 15 C1.48 3.51, 5.05 -0.66, 15 0 M0 15 C1.07 4.81, 3.85 -1.43, 15 0" stroke="#1971c2" stroke-width="2" fill="none"></path></g><g transform="translate(678.88 254) rotate(0 85.12 20)"><text x="85.12" y="14.3203125" font-family="Helvetica, Segoe UI Emoji" font-size="16px" fill="#1e1e1e" text-anchor="middle" style="white-space: pre;" direction="ltr" dominant-baseline="alphabetic">Host SPI driver</text><text x="85.12" y="34.3203125" font-family="Helvetica, Segoe UI Emoji" font-size="16px" fill="#1e1e1e" text-anchor="middle" style="white-space: pre;" direction="ltr" dominant-baseline="alphabetic">sw/host/protocol.py</text></g><g stroke-linecap="round" transform="translate(964 224) rotate(0 130 50)"><path d="M25 0 C105.35 -0.54, 193.71 2.63, 235 0 C251.28 -0.92, 259.26 5.31, 260 25 C258.8 34.48, 258.61 47.14, 260 75 C262.09 94.6, 253.81 96.85, 235 100 C185.62 101.53, 133.14 104.54, 25 100 C9.21 100.94, 1.07 90.74, 0 75 C-2.74 55.35, 2.27 39.47, 0 25 C0.8 5.3, 7.58 0.72, 25 0" stroke="none" stroke-width="0" fill="#d0bfff"></path><path d="M25 0 C80.87 1.8, 136.56 -0.27, 235 0 M25 0 C88.35 -0.82, 150.56 -0.17, 235 0 M235 0 C251.43 -1.8, 260.77 7.99, 260 25 M235 0 C252.53 2.14, 261.45 8.38, 260 25 M260 25 C261.3 40.59, 260.46 56.53, 260 75 M260 25 C259.4 38.12, 260.88 52.78, 260 75 M260 75 C261.92 90.28, 250.7 100.98, 235 100 M260 75 C259.85 90.58, 252.99 99.38, 235 100 M235 100 C181.37 99.41, 125.12 98.82, 25 100 M235 100 C154.45 99.71, 73.01 99.36, 25 100 M25 100 C8.47 98.96, 1.8 92.74, 0 75 M25 100 C10.14 101.22, -0.99 89.54, 0 75 M0 75 C1.81 61.02, -1.73 49.23, 0 25 M0 75 C0.76 63.63, 1.29 50.55, 0 25 M0 25 C-1.93 7.46, 6.67 -1.52, 25 0 M0 25 C0.79 8.52, 10.14 -0.96, 25 0" stroke="#6741d9" stroke-width="2" fill="none"></path></g><g transform="translate(1008.8800000000001 244) rotate(0 85.12 30)"><text x="85.12" y="14.3203125" font-family="Helvetica, Segoe UI Emoji" font-size="16px" fill="#1e1e1e" text-anchor="middle" style="white-space: pre;" direction="ltr" dominant-baseline="alphabetic">DUT: tb.v → tt_um_*</text><text x="85.12" y="34.3203125" font-family="Helvetica, Segoe UI Emoji" font-size="16px" fill="#1e1e1e" text-anchor="middle" style="white-space: pre;" direction="ltr" dominant-baseline="alphabetic">RTL or gate-level</text><text x="85.12" y="54.3203125" font-family="Helvetica, Segoe UI Emoji" font-size="16px" fill="#1e1e1e" text-anchor="middle" style="white-space: pre;" direction="ltr" dominant-baseline="alphabetic">netlist</text></g><g stroke-linecap="round" transform="translate(364 394) rotate(0 100 35)"><path d="M17.5 0 C76.48 -2.49, 133.45 -1.33, 182.5 0 C195.76 0.08, 203.22 6.29, 200 17.5 C201.31 22.9, 197.66 31.6, 200 52.5 C198.85 62.59, 191.62 72.27, 182.5 70 C115.86 69.73, 53.42 68.27, 17.5 70 C4.85 69.01, -2.04 61.03, 0 52.5 C-0.06 42.36, -3.6 26.73, 0 17.5 C0.72 3.77, 9.38 -1.81, 17.5 0" stroke="none" stroke-width="0" fill="#b2f2bb"></path><path d="M17.5 0 C76.09 2.37, 129.27 0.95, 182.5 0 M17.5 0 C68.5 -1.99, 120.23 -0.37, 182.5 0 M182.5 0 C193.61 0.47, 199.41 5.61, 200 17.5 M182.5 0 C193.89 1.76, 200.47 7.48, 200 17.5 M200 17.5 C201.5 25.68, 199.22 32.44, 200 52.5 M200 17.5 C200.22 28.93, 200.4 39.04, 200 52.5 M200 52.5 C199.31 66.15, 195.12 71.36, 182.5 70 M200 52.5 C200.09 62.83, 195.45 69.78, 182.5 70 M182.5 70 C129.91 70.96, 75.33 69.93, 17.5 70 M182.5 70 C136.61 72.2, 90.02 72.13, 17.5 70 M17.5 70 C5.35 69.39, 1.25 63.8, 0 52.5 M17.5 70 C7.91 70.91, 2.11 65.59, 0 52.5 M0 52.5 C1.98 44.81, -1.42 33.74, 0 17.5 M0 52.5 C-0.3 40.5, 0.42 28.84, 0 17.5 M0 17.5 C1.22 6.99, 6.94 1.88, 17.5 0 M0 17.5 C-0.01 5.71, 6.32 -0.11, 17.5 0" stroke="#2f9e44" stroke-width="2" fill="none"></path></g><g transform="translate(396.8 409) rotate(0 67.20000000000002 20)"><text x="67.2" y="14.3203125" font-family="Helvetica, Segoe UI Emoji" font-size="16px" fill="#1e1e1e" text-anchor="middle" style="white-space: pre;" direction="ltr" dominant-baseline="alphabetic">Reference model</text><text x="67.2" y="34.3203125" font-family="Helvetica, Segoe UI Emoji" font-size="16px" fill="#1e1e1e" text-anchor="middle" style="white-space: pre;" direction="ltr" dominant-baseline="alphabetic">test/model</text></g><g stroke-linecap="round" transform="translate(644 394) rotate(0 120 35)"><path d="M17.5 0 C90.24 -1.37, 169.46 0.51, 222.5 0 C232.02 0.98, 238.77 4.3, 240 17.5 C238.79 24.32, 241.29 36.42, 240 52.5 C242.94 62.65, 232.39 73.24, 222.5 70 C156.12 65.59, 94.15 68.01, 17.5 70 C5.08 73.04, -1.31 65.58, 0 52.5 C-3.13 40.78, 2.27 25.1, 0 17.5 C1.68 8.67, 7.56 1.94, 17.5 0" stroke="none" stroke-width="0" fill="#ffec99"></path><path d="M17.5 0 C91.61 3.35, 161.15 0.96, 222.5 0 M17.5 0 C72.57 1.27, 128.96 1.04, 222.5 0 M222.5 0 C233.78 0.12, 241.25 6.65, 240 17.5 M222.5 0 C232.81 -0.94, 240.8 7.43, 240 17.5 M240 17.5 C238.06 30.54, 241.57 41.04, 240 52.5 M240 17.5 C240.48 29.62, 240.03 40.89, 240 52.5 M240 52.5 C238.94 64.25, 235.86 70.85, 222.5 70 M240 52.5 C237.95 63.68, 232.78 72.03, 222.5 70 M222.5 70 C147.99 69.82, 71.72 69.42, 17.5 70 M222.5 70 C158.86 69.35, 93.55 69.16, 17.5 70 M17.5 70 C6.24 68.41, -1.87 62.71, 0 52.5 M17.5 70 C4.97 71.73, -2.18 64.28, 0 52.5 M0 52.5 C-0.42 45.24, -0.72 32.95, 0 17.5 M0 52.5 C-0.37 38.38, -0.16 25.15, 0 17.5 M0 17.5 C0.36 6.88, 7.5 -0.16, 17.5 0 M0 17.5 C-0.94 7.7, 7.47 -1.95, 17.5 0" stroke="#e8590c" stroke-width="2" fill="none"></path></g><g transform="translate(669.92 409) rotate(0 94.07999999999998 20)"><text x="94.08000000000001" y="14.3203125" font-family="Helvetica, Segoe UI Emoji" font-size="16px" fill="#1e1e1e" text-anchor="middle" style="white-space: pre;" direction="ltr" dominant-baseline="alphabetic">Lockstep compare</text><text x="94.08000000000001" y="34.3203125" font-family="Helvetica, Segoe UI Emoji" font-size="16px" fill="#1e1e1e" text-anchor="middle" style="white-space: pre;" direction="ltr" dominant-baseline="alphabetic">PC + pins every cycle</text></g><g stroke-linecap="round" transform="translate(964 384) rotate(0 145 45)"><path d="M22.5 0 C77.44 -1.36, 132.45 0.47, 267.5 0 C280.47 2.67, 290.41 10.87, 290 22.5 C287.27 35.67, 292.54 56.17, 290 67.5 C290.65 81.3, 283.24 92.43, 267.5 90 C193.78 85.86, 122.2 88.9, 22.5 90 C4.05 92.87, -2.76 86.07, 0 67.5 C0.94 54.05, 1.87 37.19, 0 22.5 C0.42 9.21, 7.78 -3.49, 22.5 0" stroke="none" stroke-width="0" fill="#ffc9c9"></path><path d="M22.5 0 C116.41 0.94, 207.81 -0.19, 267.5 0 M22.5 0 C93.64 1.79, 164.56 2.12, 267.5 0 M267.5 0 C282.18 1.09, 288.08 6.24, 290 22.5 M267.5 0 C280.51 0.37, 289.2 6.73, 290 22.5 M290 22.5 C289.28 35.48, 288.5 48.4, 290 67.5 M290 22.5 C289.54 33.62, 290.48 45.08, 290 67.5 M290 67.5 C291.37 81.71, 282.61 91.82, 267.5 90 M290 67.5 C291.42 80.47, 282.25 91.01, 267.5 90 M267.5 90 C204.58 87.7, 141.48 90.12, 22.5 90 M267.5 90 C184.85 90.05, 100.16 90.47, 22.5 90 M22.5 90 C6.48 91.15, 0.89 82.42, 0 67.5 M22.5 90 C9.06 89.72, 1.11 81.87, 0 67.5 M0 67.5 C-1.56 56.09, -0.34 42.09, 0 22.5 M0 67.5 C1.04 54.38, 0.31 39.54, 0 22.5 M0 22.5 C-1.79 9.33, 8.9 -1.67, 22.5 0 M0 22.5 C-2.19 7.93, 9.76 -1.67, 22.5 0" stroke="#c92a2a" stroke-width="2" fill="none"></path></g><g transform="translate(974.6 399) rotate(0 134.40000000000003 30)"><text x="134.4" y="14.3203125" font-family="Helvetica, Segoe UI Emoji" font-size="16px" fill="#1e1e1e" text-anchor="middle" style="white-space: pre;" direction="ltr" dominant-baseline="alphabetic">Protocol peers / monitors</text><text x="134.4" y="34.3203125" font-family="Helvetica, Segoe UI Emoji" font-size="16px" fill="#1e1e1e" text-anchor="middle" style="white-space: pre;" direction="ltr" dominant-baseline="alphabetic">UART · SPI target · I2C target</text><text x="134.4" y="54.3203125" font-family="Helvetica, Segoe UI Emoji" font-size="16px" fill="#1e1e1e" text-anchor="middle" style="white-space: pre;" direction="ltr" dominant-baseline="alphabetic">(open-drain, stretch, NACK)</text></g><g stroke-linecap="round" transform="translate(644 504) rotate(0 120 30)"><path d="M15 0 C81.89 2.79, 147.66 2.63, 225 0 C231.96 -0.45, 238.87 7.85, 240 15 C236.39 22.29, 240.61 32.38, 240 45 C238.45 53.31, 232.83 58.38, 225 60 C179.18 58.97, 128.07 54.9, 15 60 C1.47 58.15, 0.83 53.89, 0 45 C1.64 38.02, 1.16 26.61, 0 15 C-0.7 2.62, 5.68 -0.22, 15 0" stroke="none" stroke-width="0" fill="#ffec99"></path><path d="M15 0 C66.04 0.19, 121.71 0.83, 225 0 M15 0 C83.28 -1.27, 152.38 -1.25, 225 0 M225 0 C234.59 1.69, 238.18 5.26, 240 15 M225 0 C234.97 -0.16, 240.13 5.89, 240 15 M240 15 C239.68 23.89, 241.25 32.24, 240 45 M240 15 C239.55 25.51, 240.67 37.54, 240 45 M240 45 C239.9 55.75, 233.4 58.72, 225 60 M240 45 C238.11 53.39, 236 57.96, 225 60 M225 60 C140.58 59.85, 59.48 58.84, 15 60 M225 60 C146.99 59.68, 69.83 60.02, 15 60 M15 60 C6.85 60.79, -1.7 54.16, 0 45 M15 60 C3.98 57.92, -1.88 52.95, 0 45 M0 45 C0.95 38.95, 1.06 33.69, 0 15 M0 45 C-0.69 37.21, -0.56 29.75, 0 15 M0 15 C-1 4.28, 4.65 -1.66, 15 0 M0 15 C1.43 6.88, 7.07 1.2, 15 0" stroke="#e8590c" stroke-width="2" fill="none"></path></g><g transform="translate(656.48 514) rotate(0 107.51999999999998 20)"><text x="107.52000000000001" y="14.3203125" font-family="Helvetica, Segoe UI Emoji" font-size="16px" fill="#1e1e1e" text-anchor="middle" style="white-space: pre;" direction="ltr" dominant-baseline="alphabetic">Scoreboard + timing</text><text x="107.52000000000001" y="34.3203125" font-family="Helvetica, Segoe UI Emoji" font-size="16px" fill="#1e1e1e" text-anchor="middle" style="white-space: pre;" direction="ltr" dominant-baseline="alphabetic">(edge cycles, not bytes)</text></g><g stroke-linecap="round"><g transform="translate(284 234) rotate(0 40 15)"><path d="M0 0 C10.76 1.16, 23.21 -0.68, 40 0 M0 0 C13.03 0.39, 26.62 -0.16, 40 0 M40 0 C38.46 7.42, 40.69 14.25, 40 30 M40 0 C40.14 8.47, 41.05 17.75, 40 30 M40 30 C48.41 30.3, 60.63 28.06, 80 30 M40 30 C54.59 29.86, 70.09 30.58, 80 30" stroke="#1e1e1e" stroke-width="2" fill="none"></path></g><g transform="translate(284 234) rotate(0 40 15)"><path d="M61.36 37.26 C66.01 36.19, 72.3 32.26, 80 30 M61.36 37.26 C67.22 35.3, 73.61 32.29, 80 30" stroke="#1e1e1e" stroke-width="2" fill="none"></path></g><g transform="translate(284 234) rotate(0 40 15)"><path d="M61.06 23.58 C65.7 26.46, 72.07 26.47, 80 30 M61.06 23.58 C66.98 26.23, 73.47 27.83, 80 30" stroke="#1e1e1e" stroke-width="2" fill="none"></path></g></g><mask></mask><g stroke-linecap="round"><g transform="translate(284 314) rotate(0 40 -15)"><path d="M0 0 C9.79 0.87, 16.06 -0.99, 40 0 M0 0 C10.22 0.78, 21.39 0.77, 40 0 M40 0 C40.45 -9.46, 38.45 -14.63, 40 -30 M40 0 C40.91 -11.56, 40.93 -22.07, 40 -30 M40 -30 C55.2 -31.34, 69.21 -29.23, 80 -30 M40 -30 C54.22 -29.06, 67.44 -30.99, 80 -30" stroke="#1e1e1e" stroke-width="2" fill="none"></path></g><g transform="translate(284 314) rotate(0 40 -15)"><path d="M61.06 -23.58 C66.48 -24.05, 68.33 -27.25, 80 -30 M61.06 -23.58 C65.43 -24.77, 70.79 -26.55, 80 -30" stroke="#1e1e1e" stroke-width="2" fill="none"></path></g><g transform="translate(284 314) rotate(0 40 -15)"><path d="M61.36 -37.26 C66.6 -34.85, 68.38 -35.18, 80 -30 M61.36 -37.26 C65.73 -34.68, 71.01 -32.68, 80 -30" stroke="#1e1e1e" stroke-width="2" fill="none"></path></g></g><mask></mask><g mask="url(#mask-a-026)" stroke-linecap="round"><g transform="translate(564 274) rotate(0 40 0)"><path d="M0 0 C32.35 -1.41, 61.25 2.25, 80 0 M0 0 C26.27 0.3, 52.67 1.15, 80 0" stroke="#1e1e1e" stroke-width="2" fill="none"></path></g><g transform="translate(564 274) rotate(0 40 0)"><path d="M56.71 9.09 C67.44 3.93, 74.8 4.14, 80 0 M56.71 9.09 C64.3 6.17, 71.92 4.01, 80 0" stroke="#1e1e1e" stroke-width="2" fill="none"></path></g><g transform="translate(564 274) rotate(0 40 0)"><path d="M56.32 -8.01 C67.36 -6.67, 74.88 0.03, 80 0 M56.32 -8.01 C63.86 -5.26, 71.61 -1.76, 80 0" stroke="#1e1e1e" stroke-width="2" fill="none"></path></g></g><mask id="mask-a-026"><rect x="0" y="0" fill="#fff" width="744" height="374"></rect><rect x="592.24" y="265.25" fill="#000" width="23.520000000000003" height="17.5" opacity="1"></rect></mask><g transform="translate(592.24 265.25) rotate(0 11.759999999999991 8.958838960101275)"><text x="11.760000000000002" y="12.5302734375" font-family="Helvetica, Segoe UI Emoji" font-size="14px" fill="#1e1e1e" text-anchor="middle" style="white-space: pre;" direction="ltr" dominant-baseline="alphabetic">hex</text></g><g mask="url(#mask-a-028)" stroke-linecap="round"><g transform="translate(884 274) rotate(0 40 0)"><path d="M0 0 C25.42 0.93, 50.07 0.32, 80 0 M0 0 C16.52 -0.69, 32.74 -1.07, 80 0" stroke="#1e1e1e" stroke-width="2" fill="none"></path></g><g transform="translate(884 274) rotate(0 40 0)"><path d="M56.36 8.15 C63.92 6.73, 70.77 3.55, 80 0 M56.36 8.15 C61.2 5.83, 65.69 3.76, 80 0" stroke="#1e1e1e" stroke-width="2" fill="none"></path></g><g transform="translate(884 274) rotate(0 40 0)"><path d="M56.66 -8.95 C64.27 -4.97, 71.03 -2.75, 80 0 M56.66 -8.95 C61.33 -7.71, 65.76 -6.22, 80 0" stroke="#1e1e1e" stroke-width="2" fill="none"></path></g></g><mask id="mask-a-028"><rect x="0" y="0" fill="#fff" width="1064" height="374"></rect><rect x="912.24" y="265.25" fill="#000" width="23.520000000000003" height="17.5" opacity="1"></rect></mask><g transform="translate(912.24 265.25) rotate(0 11.759999999999991 8.662135664770346)"><text x="11.760000000000002" y="12.5302734375" font-family="Helvetica, Segoe UI Emoji" font-size="14px" fill="#1e1e1e" text-anchor="middle" style="white-space: pre;" direction="ltr" dominant-baseline="alphabetic">SPI</text></g><g mask="url(#mask-a-030)" stroke-linecap="round"><g transform="translate(464 304) rotate(0 0 45)"><path d="M0 0 C-1.21 25.54, 1.08 52.25, 0 90 M0 0 C-0.01 27.86, 1.06 57.38, 0 90" stroke="#1e1e1e" stroke-width="2" fill="none"></path></g><g transform="translate(464 304) rotate(0 0 45)"><path d="M-8.17 66.37 C-7.05 72.08, -2.32 78.99, 0 90 M-8.17 66.37 C-5.99 73.15, -2.32 81.57, 0 90" stroke="#1e1e1e" stroke-width="2" fill="none"></path></g><g transform="translate(464 304) rotate(0 0 45)"><path d="M8.93 66.65 C4.95 72.35, 4.58 79.17, 0 90 M8.93 66.65 C5.67 73.28, 3.9 81.61, 0 90" stroke="#1e1e1e" stroke-width="2" fill="none"></path></g></g><mask id="mask-a-030"><rect x="0" y="0" fill="#fff" width="564" height="494"></rect><rect x="436.55999999999995" y="340.25" fill="#000" width="54.88" height="17.5" opacity="1"></rect></mask><g transform="translate(436.56 340.25) rotate(0 27.492003380361638 8.75)"><text x="27.44" y="12.5302734375" font-family="Helvetica, Segoe UI Emoji" font-size="14px" fill="#1e1e1e" text-anchor="middle" style="white-space: pre;" direction="ltr" dominant-baseline="alphabetic">program</text></g><g mask="url(#mask-a-032)" stroke-linecap="round"><g transform="translate(564 429) rotate(0 40 0)"><path d="M0 0 C31.84 -0.58, 63.5 -1.39, 80 0 M0 0 C18.87 -1.03, 35.81 -0.49, 80 0" stroke="#1e1e1e" stroke-width="2" fill="none"></path></g><g transform="translate(564 429) rotate(0 40 0)"><path d="M56.4 8.26 C65.7 4.31, 74.86 0.2, 80 0 M56.4 8.26 C62.58 5.59, 66.88 4.28, 80 0" stroke="#1e1e1e" stroke-width="2" fill="none"></path></g><g transform="translate(564 429) rotate(0 40 0)"><path d="M56.62 -8.84 C65.89 -5.96, 74.96 -3.25, 80 0 M56.62 -8.84 C62.87 -7.68, 67.12 -5.16, 80 0" stroke="#1e1e1e" stroke-width="2" fill="none"></path></g></g><mask id="mask-a-032"><rect x="0" y="0" fill="#fff" width="744" height="529"></rect><rect x="572.6399999999999" y="420.25" fill="#000" width="62.720000000000006" height="17.5" opacity="1"></rect></mask><g transform="translate(572.64 420.25) rotate(0 31.360000000000014 8.366820425327091)"><text x="31.360000000000003" y="12.5302734375" font-family="Helvetica, Segoe UI Emoji" font-size="14px" fill="#1e1e1e" text-anchor="middle" style="white-space: pre;" direction="ltr" dominant-baseline="alphabetic">expected</text></g><g mask="url(#mask-a-034)" stroke-linecap="round"><g transform="translate(964 309) rotate(0 -40 60)"><path d="M0 0 C-12.22 0.84, -24.85 -0.69, -40 0 M0 0 C-9.97 0.73, -21.3 -0.14, -40 0 M-40 0 C-38.5 31.53, -41.23 59.26, -40 120 M-40 0 C-40.18 39.8, -41.52 79.39, -40 120 M-40 120 C-51.79 120.75, -64.09 119.23, -80 120 M-40 120 C-53.76 120.45, -69.79 119.36, -80 120" stroke="#1e1e1e" stroke-width="2" fill="none"></path></g><g transform="translate(964 309) rotate(0 -40 60)"><path d="M-61.34 112.81 C-67.18 115.76, -73.39 116.39, -80 120 M-61.34 112.81 C-65.52 115.57, -71.08 116.65, -80 120" stroke="#1e1e1e" stroke-width="2" fill="none"></path></g><g transform="translate(964 309) rotate(0 -40 60)"><path d="M-61.08 126.49 C-66.92 125.33, -73.21 121.84, -80 120 M-61.08 126.49 C-65.37 125.55, -71 122.93, -80 120" stroke="#1e1e1e" stroke-width="2" fill="none"></path></g></g><mask id="mask-a-034"><rect x="0" y="0" fill="#fff" width="1144" height="529"></rect><rect x="892.6399999999999" y="360.25" fill="#000" width="62.720000000000006" height="17.5" opacity="1"></rect></mask><g transform="translate(892.64 360.25) rotate(0 31.360000000000014 8.764731870381326)"><text x="31.360000000000003" y="12.5302734375" font-family="Helvetica, Segoe UI Emoji" font-size="14px" fill="#1e1e1e" text-anchor="middle" style="white-space: pre;" direction="ltr" dominant-baseline="alphabetic">observed</text></g><g mask="url(#mask-a-036)" stroke-linecap="round"><g transform="translate(1094 324) rotate(0 0 30)"><path d="M0 0 C-0.81 17.68, -1.79 38.05, 0 60 M0 0 C-0.32 13.5, 0.22 25.9, 0 60" stroke="#1e1e1e" stroke-width="2" fill="none"></path></g><g transform="translate(1094 324) rotate(0 0 30)"><path d="M8 23.68 C5.17 15.31, 1.7 9.65, 0 0 M8 23.68 C6.42 18.58, 5.18 12.46, 0 0" stroke="#1e1e1e" stroke-width="2" fill="none"></path></g><g transform="translate(1094 324) rotate(0 0 30)"><path d="M-9.09 23.29 C-6.61 15.1, -4.76 9.57, 0 0 M-9.09 23.29 C-6.9 18.44, -4.35 12.41, 0 0" stroke="#1e1e1e" stroke-width="2" fill="none"></path></g><g transform="translate(1094 324) rotate(0 0 30)"><path d="M-8.52 36.5 C-6.47 42.86, -4.81 51.88, 0 60 M-8.52 36.5 C-6.73 42, -4.31 46.33, 0 60" stroke="#1e1e1e" stroke-width="2" fill="none"></path></g><g transform="translate(1094 324) rotate(0 0 30)"><path d="M8.58 36.52 C5.31 42.81, 1.66 51.82, 0 60 M8.58 36.52 C6.58 41.85, 5.22 46.17, 0 60" stroke="#1e1e1e" stroke-width="2" fill="none"></path></g></g><mask id="mask-a-036"><rect x="0" y="0" fill="#fff" width="1194" height="484"></rect><rect x="1078.3199999999997" y="345.25" fill="#000" width="31.360000000000003" height="17.5" opacity="1"></rect></mask><g transform="translate(1078.32 345.25) rotate(0 15.203081362377247 8.75)"><text x="15.680000000000001" y="12.5302734375" font-family="Helvetica, Segoe UI Emoji" font-size="14px" fill="#1e1e1e" text-anchor="middle" style="white-space: pre;" direction="ltr" dominant-baseline="alphabetic">pins</text></g><g mask="url(#mask-a-038)" stroke-linecap="round"><g transform="translate(1104 474) rotate(0 -110 30)"><path d="M0 0 C-0.85 20.63, -1.18 43.38, 0 60 M0 0 C-1.24 21.5, -0.88 45.17, 0 60 M0 60 C-37.47 58.94, -74.85 57.46, -110 60 M0 60 C-26.34 60.62, -53.32 60.11, -110 60 M-110 60 C-137.22 57.33, -166.18 60.97, -220 60 M-110 60 C-132.57 60.87, -154.74 60.2, -220 60" stroke="#1e1e1e" stroke-width="2" fill="none"></path></g><g transform="translate(1104 474) rotate(0 -110 30)"><path d="M-196.46 51.57 C-206.11 53.29, -215.16 56.94, -220 60 M-196.46 51.57 C-206.1 54.2, -214.45 58.79, -220 60" stroke="#1e1e1e" stroke-width="2" fill="none"></path></g><g transform="translate(1104 474) rotate(0 -110 30)"><path d="M-196.55 68.67 C-206.19 64.06, -215.21 61.37, -220 60 M-196.55 68.67 C-206.06 64.97, -214.37 63.23, -220 60" stroke="#1e1e1e" stroke-width="2" fill="none"></path></g></g><mask id="mask-a-038"><rect x="0" y="0" fill="#fff" width="1424" height="634"></rect><rect x="994.1199999999999" y="525.25" fill="#000" width="109.76" height="17.5" opacity="1"></rect></mask><g transform="translate(994.12 525.25) rotate(0 -0.12000000000000455 -21.03299720954493)"><text x="54.88" y="12.5302734375" font-family="Helvetica, Segoe UI Emoji" font-size="14px" fill="#1e1e1e" text-anchor="middle" style="white-space: pre;" direction="ltr" dominant-baseline="alphabetic">decoded frames</text></g><g stroke-linecap="round"><g transform="translate(764 464) rotate(0 0 20)"><path d="M0 0 C-0.82 8.09, -0.3 16.74, 0 40 M0 0 C-0.11 13.92, 0.44 26.9, 0 40" stroke="#1e1e1e" stroke-width="2" fill="none"></path></g><g transform="translate(764 464) rotate(0 0 20)"><path d="M-6.56 21.11 C-6.1 24.89, -4.23 29.2, 0 40 M-6.56 21.11 C-4.48 27.84, -1.7 33.64, 0 40" stroke="#1e1e1e" stroke-width="2" fill="none"></path></g><g transform="translate(764 464) rotate(0 0 20)"><path d="M7.11 21.31 C4.77 25.01, 3.84 29.29, 0 40 M7.11 21.31 C4.55 28, 2.68 33.74, 0 40" stroke="#1e1e1e" stroke-width="2" fill="none"></path></g></g><mask></mask><g stroke-linecap="round" transform="translate(24 624) rotate(0 300 45)"><path d="M22.5 0 C240.19 1.8, 456.41 -0.1, 577.5 0 C589.9 1.08, 600.56 8.18, 600 22.5 C603.75 37.16, 603.61 56.39, 600 67.5 C599.32 83.23, 595.1 93.38, 577.5 90 C407.94 88.31, 237.39 86.91, 22.5 90 C4.22 86.46, 0.39 85.4, 0 67.5 C2.73 55.77, -2.18 41.04, 0 22.5 C1.8 4.23, 10.53 -2.86, 22.5 0" stroke="none" stroke-width="0" fill="#b2f2bb"></path><path d="M22.5 0 C223.31 0.84, 423.71 0.14, 577.5 0 M22.5 0 C179.97 0.03, 338.6 -0.62, 577.5 0 M577.5 0 C593.36 0.07, 599 9.26, 600 22.5 M577.5 0 C592.78 1.88, 600.4 7.44, 600 22.5 M600 22.5 C601.01 32.54, 598.98 41.85, 600 67.5 M600 22.5 C599.5 33.41, 600.85 43.76, 600 67.5 M600 67.5 C599.98 82.77, 590.67 91.02, 577.5 90 M600 67.5 C601.41 81.48, 594.28 90.82, 577.5 90 M577.5 90 C445.44 89.68, 311.65 90.03, 22.5 90 M577.5 90 C391.62 90.55, 205.59 91.02, 22.5 90 M22.5 90 C6.97 89.7, -0.86 81.64, 0 67.5 M22.5 90 C9.21 91.39, -2.11 84.1, 0 67.5 M0 67.5 C-0.72 53.51, 0.15 39.66, 0 22.5 M0 67.5 C-0.1 57.39, -0.48 48.85, 0 22.5 M0 22.5 C-1.46 8.58, 9.46 0.05, 22.5 0 M0 22.5 C-1.38 5.44, 5.85 -0.3, 22.5 0" stroke="#2f9e44" stroke-width="2" fill="none"></path></g><g transform="translate(91.03999999999996 649) rotate(0 232.96000000000004 20)"><text x="232.96000000000004" y="14.3203125" font-family="Helvetica, Segoe UI Emoji" font-size="16px" fill="#1e1e1e" text-anchor="middle" style="white-space: pre;" direction="ltr" dominant-baseline="alphabetic">formal/*.sby — SymbiYosys (OSS CAD Suite)</text><text x="232.96000000000004" y="34.3203125" font-family="Helvetica, Segoe UI Emoji" font-size="16px" fill="#1e1e1e" text-anchor="middle" style="white-space: pre;" direction="ltr" dominant-baseline="alphabetic">FIFO · delay · stall · reset / open-drain properties</text></g><g stroke-linecap="round" transform="translate(664 624) rotate(0 320 45)"><path d="M22.5 0 C169.4 4.55, 319.17 4.6, 617.5 0 C633.75 2.51, 638.02 10.21, 640 22.5 C638.05 40.42, 643.57 60.85, 640 67.5 C641.21 81.78, 634.55 90.65, 617.5 90 C483.55 88.31, 350.91 89.37, 22.5 90 C3.95 91.66, 2.53 82.15, 0 67.5 C-0.03 52.54, 1.36 41.61, 0 22.5 C-1.07 4.69, 9.15 -2.15, 22.5 0" stroke="none" stroke-width="0" fill="#e9ecef"></path><path d="M22.5 0 C260.31 -1.43, 498.13 -2.39, 617.5 0 M22.5 0 C256.93 -0.84, 490.52 -1.5, 617.5 0 M617.5 0 C631.51 -0.18, 641.05 8.54, 640 22.5 M617.5 0 C633.66 1.33, 641.43 7.97, 640 22.5 M640 22.5 C638.64 37.64, 638.64 52.5, 640 67.5 M640 22.5 C639.82 33.64, 640.37 45.2, 640 67.5 M640 67.5 C638.31 83.53, 631.97 88.86, 617.5 90 M640 67.5 C639.11 84.23, 633.37 90.97, 617.5 90 M617.5 90 C491.23 89.14, 363.1 89.49, 22.5 90 M617.5 90 C454.23 90.4, 291.39 90.18, 22.5 90 M22.5 90 C7.74 90.34, -0.86 81.42, 0 67.5 M22.5 90 C6.48 91.49, -0.59 84.31, 0 67.5 M0 67.5 C1.06 52.63, -0.77 35.96, 0 22.5 M0 67.5 C0.58 51.71, 0.05 36.63, 0 22.5 M0 22.5 C0.02 9.37, 7.91 1.19, 22.5 0 M0 22.5 C-0.91 8.88, 6.72 1.01, 22.5 0" stroke="#495057" stroke-width="2" fill="none"></path></g><g transform="translate(751.04 649) rotate(0 232.96000000000004 20)"><text x="232.96000000000004" y="14.3203125" font-family="Helvetica, Segoe UI Emoji" font-size="16px" fill="#1e1e1e" text-anchor="middle" style="white-space: pre;" direction="ltr" dominant-baseline="alphabetic">GitHub Actions on every push</text><text x="232.96000000000004" y="34.3203125" font-family="Helvetica, Segoe UI Emoji" font-size="16px" fill="#1e1e1e" text-anchor="middle" style="white-space: pre;" direction="ltr" dominant-baseline="alphabetic">test (cocotb) · gds (LibreLane) · precheck · gl_test</text></g><g transform="translate(24 754) rotate(0 282.24 11.25)"><text x="0" y="16.1103515625" font-family="Helvetica, Segoe UI Emoji" font-size="18px" fill="#1e1e1e" text-anchor="start" style="white-space: pre;" direction="ltr" dominant-baseline="alphabetic">B. DE1-SoC remote hardware-in-the-loop (over campus VPN)</text></g><g stroke-linecap="round" transform="translate(24 804) rotate(0 120 50)"><path d="M25 0 C96.59 1.42, 166.89 -0.19, 215 0 C231.52 -1.44, 241.66 7.67, 240 25 C241.45 36.3, 237.54 42.25, 240 75 C239.03 88.79, 232.56 97.37, 215 100 C148.81 100.24, 78.68 98.72, 25 100 C7.5 101.91, 2.19 93.65, 0 75 C-2.84 53.95, -0.09 36.21, 0 25 C-0.33 7.64, 8.59 0.29, 25 0" stroke="none" stroke-width="0" fill="#e9ecef"></path><path d="M25 0 C77.92 1.04, 128.2 -0.08, 215 0 M25 0 C66.25 -1.1, 108.52 -1.6, 215 0 M215 0 C230.46 0.1, 241.53 9, 240 25 M215 0 C229.96 0.24, 241.57 6.77, 240 25 M240 25 C240.86 44.68, 238.56 62.45, 240 75 M240 25 C239.78 43.69, 241.01 61.38, 240 75 M240 75 C241.04 91.09, 230.03 99.85, 215 100 M240 75 C239.71 91.93, 230.99 98.04, 215 100 M215 100 C151.06 98.87, 87.31 98.59, 25 100 M215 100 C156.65 102.44, 98.58 102.45, 25 100 M25 100 C9.93 98.32, 1.53 90.38, 0 75 M25 100 C6.58 98.15, 2.03 93.23, 0 75 M0 75 C0.51 56.06, -1.15 35.86, 0 25 M0 75 C0.97 64.75, -0.29 53.35, 0 25 M0 25 C0.6 8.32, 6.65 0.48, 25 0 M0 25 C1.46 9.22, 8.91 1.79, 25 0" stroke="#495057" stroke-width="2" fill="none"></path></g><g transform="translate(31.999999999999986 824) rotate(0 112 30)"><text x="112.00000000000001" y="14.3203125" font-family="Helvetica, Segoe UI Emoji" font-size="16px" fill="#1e1e1e" text-anchor="middle" style="white-space: pre;" direction="ltr" dominant-baseline="alphabetic">Teammate laptop</text><text x="112.00000000000001" y="34.3203125" font-family="Helvetica, Segoe UI Emoji" font-size="16px" fill="#1e1e1e" text-anchor="middle" style="white-space: pre;" direction="ltr" dominant-baseline="alphabetic">Quartus Lite: .sof → .rbf</text><text x="112.00000000000001" y="54.3203125" font-family="Helvetica, Segoe UI Emoji" font-size="16px" fill="#1e1e1e" text-anchor="middle" style="white-space: pre;" direction="ltr" dominant-baseline="alphabetic">ssh / scp</text></g><g stroke-linecap="round" transform="translate(314 819) rotate(0 110 35)"><path d="M17.5 0 C74.9 2.41, 140.68 -0.39, 202.5 0 C216.03 -0.22, 221.34 2.49, 220 17.5 C223.29 26.23, 219.65 31.67, 220 52.5 C220.97 66.44, 213.97 72.49, 202.5 70 C143.67 73.25, 82.59 72.48, 17.5 70 C3.1 68.77, 2.08 62.34, 0 52.5 C0.35 44.59, 3.02 26.77, 0 17.5 C-2.11 7.69, 2.33 -2.94, 17.5 0" stroke="none" stroke-width="0" fill="#e9ecef"></path><path d="M17.5 0 C82.11 0.5, 144.8 -0.75, 202.5 0 M17.5 0 C73.46 1.69, 127.83 2.17, 202.5 0 M202.5 0 C213.33 1.3, 220.57 4.35, 220 17.5 M202.5 0 C215.55 -2.17, 220.66 6.94, 220 17.5 M220 17.5 C219.59 25.8, 220.74 33.69, 220 52.5 M220 17.5 C220.8 28.98, 220.03 41.55, 220 52.5 M220 52.5 C219.51 64.12, 214.18 71.81, 202.5 70 M220 52.5 C221.94 63.28, 215.2 69.99, 202.5 70 M202.5 70 C155.36 70.95, 107.89 72.1, 17.5 70 M202.5 70 C141.98 67.58, 82.36 67.22, 17.5 70 M17.5 70 C5.32 69.07, -1.79 63.32, 0 52.5 M17.5 70 C6.97 70.33, -1.64 63.74, 0 52.5 M0 52.5 C0.5 43.37, -1.29 32.31, 0 17.5 M0 52.5 C0.04 39.94, -0.36 26.24, 0 17.5 M0 17.5 C1.39 6.75, 4.28 1.57, 17.5 0 M0 17.5 C-0.11 6.47, 6.26 -1.22, 17.5 0" stroke="#495057" stroke-width="2" fill="none"></path></g><g transform="translate(325.44 834) rotate(0 98.55999999999997 20)"><text x="98.56" y="14.3203125" font-family="Helvetica, Segoe UI Emoji" font-size="16px" fill="#1e1e1e" text-anchor="middle" style="white-space: pre;" direction="ltr" dominant-baseline="alphabetic">Campus VPN</text><text x="98.56" y="34.3203125" font-family="Helvetica, Segoe UI Emoji" font-size="16px" fill="#1e1e1e" text-anchor="middle" style="white-space: pre;" direction="ltr" dominant-baseline="alphabetic">(Tailscale = fallback)</text></g><g stroke-linecap="round" transform="translate(584 794) rotate(0 135 60)"><path d="M30 0 C75.47 2.71, 120.83 1.67, 240 0 C260.31 -0.35, 271.72 11.5, 270 30 C269.2 53.92, 266.5 74.2, 270 90 C269.71 112.49, 263.36 122.39, 240 120 C186.95 120.69, 140.21 122.87, 30 120 C9.01 123, 0.64 113.02, 0 90 C0.01 71.14, -2.77 50.74, 0 30 C0.12 12.95, 9.71 -2.8, 30 0" stroke="none" stroke-width="0" fill="#a5d8ff"></path><path d="M30 0 C95.29 -1.76, 160.57 -0.96, 240 0 M30 0 C95.51 0.45, 162.34 1.79, 240 0 M240 0 C261.85 1.8, 271.06 9.38, 270 30 M240 0 C261.6 0.68, 268.09 10.84, 270 30 M270 30 C270.66 44.34, 270.72 60.5, 270 90 M270 30 C269.53 48.5, 270.44 64.84, 270 90 M270 90 C268.81 110.44, 261.07 118.96, 240 120 M270 90 C270.3 111.5, 260.46 121.98, 240 120 M240 120 C160.51 119.06, 79.09 118.92, 30 120 M240 120 C156.62 117.61, 73.62 118.93, 30 120 M30 120 C8.54 120.33, 1.78 111.1, 0 90 M30 120 C7.83 121.59, 1.63 108.83, 0 90 M0 90 C0.79 68.3, -2 45.22, 0 30 M0 90 C0.37 67.78, 0.29 46.1, 0 30 M0 30 C-0.53 8.54, 10.91 -0.45, 30 0 M0 30 C-1.09 7.82, 8.86 0.23, 30 0" stroke="#1971c2" stroke-width="2" fill="none"></path></g><g transform="translate(602.52 814) rotate(0 116.48000000000002 40)"><text x="116.48000000000002" y="14.3203125" font-family="Helvetica, Segoe UI Emoji" font-size="16px" fill="#1e1e1e" text-anchor="middle" style="white-space: pre;" direction="ltr" dominant-baseline="alphabetic">DE1-SoC HPS (ARM Linux)</text><text x="116.48000000000002" y="34.3203125" font-family="Helvetica, Segoe UI Emoji" font-size="16px" fill="#1e1e1e" text-anchor="middle" style="white-space: pre;" direction="ltr" dominant-baseline="alphabetic">sshd (key-only)</text><text x="116.48000000000002" y="54.3203125" font-family="Helvetica, Segoe UI Emoji" font-size="16px" fill="#1e1e1e" text-anchor="middle" style="white-space: pre;" direction="ltr" dominant-baseline="alphabetic">FPGA manager loads .rbf</text><text x="116.48000000000002" y="74.3203125" font-family="Helvetica, Segoe UI Emoji" font-size="16px" fill="#1e1e1e" text-anchor="middle" style="white-space: pre;" direction="ltr" dominant-baseline="alphabetic">pe-host: C, mmap LW bridge</text></g><g stroke-linecap="round" transform="translate(934 804) rotate(0 115 50)"><path d="M25 0 C98.68 -0.99, 166.78 -1.68, 205 0 C218.61 2.7, 230.71 7.77, 230 25 C227.88 37.51, 229.67 57.45, 230 75 C231.4 89.66, 219.95 100.57, 205 100 C147.72 103.2, 91.87 99.58, 25 100 C7 101.24, -0.91 92.58, 0 75 C-3.21 61, 0.14 53.86, 0 25 C3.28 9.38, 5.48 -0.52, 25 0" stroke="none" stroke-width="0" fill="#d0bfff"></path><path d="M25 0 C97.77 -0.84, 167.51 -0.32, 205 0 M25 0 C75.34 -0.83, 125.5 -0.72, 205 0 M205 0 C220.5 0.12, 230.18 8.31, 230 25 M205 0 C222.05 0.95, 229.5 9.77, 230 25 M230 25 C229.28 42.68, 231.59 60.34, 230 75 M230 25 C228.94 36.8, 230.6 48.11, 230 75 M230 75 C230.56 92.19, 220.88 100.15, 205 100 M230 75 C230.25 93.23, 222.85 101.9, 205 100 M205 100 C156.31 100.67, 107.89 100.95, 25 100 M205 100 C159.16 99.51, 112.37 98.56, 25 100 M25 100 C6.44 100.29, -0.49 90.13, 0 75 M25 100 C8.56 98.59, -2.21 89.83, 0 75 M0 75 C-1.6 57.99, -0.19 38.42, 0 25 M0 75 C-0.98 60.09, -0.62 44.85, 0 25 M0 25 C0.49 8.65, 8.55 0.79, 25 0 M0 25 C1.5 8.55, 9.91 0.13, 25 0" stroke="#6741d9" stroke-width="2" fill="none"></path></g><g transform="translate(954.92 824) rotate(0 94.07999999999998 30)"><text x="94.08000000000001" y="14.3203125" font-family="Helvetica, Segoe UI Emoji" font-size="16px" fill="#1e1e1e" text-anchor="middle" style="white-space: pre;" direction="ltr" dominant-baseline="alphabetic">FPGA fabric</text><text x="94.08000000000001" y="34.3203125" font-family="Helvetica, Segoe UI Emoji" font-size="16px" fill="#1e1e1e" text-anchor="middle" style="white-space: pre;" direction="ltr" dominant-baseline="alphabetic">Terasic GHRD + PIO</text><text x="94.08000000000001" y="54.3203125" font-family="Helvetica, Segoe UI Emoji" font-size="16px" fill="#1e1e1e" text-anchor="middle" style="white-space: pre;" direction="ltr" dominant-baseline="alphabetic">+ protocol engine RTL</text></g><g stroke-linecap="round" transform="translate(1224 814) rotate(0 100 40)"><path d="M20 0 C73.03 1.78, 124.55 2.55, 180 0 C196.08 3.6, 198.87 3.81, 200 20 C198.06 33.49, 201.33 50.24, 200 60 C201.98 76.46, 191.49 81.72, 180 80 C130.39 77.66, 84.32 79.57, 20 80 C4.63 81.54, 0.35 73.24, 0 60 C0.69 54.23, 2.28 38.11, 0 20 C1.94 5.27, 5.85 3.24, 20 0" stroke="none" stroke-width="0" fill="#ffc9c9"></path><path d="M20 0 C54.13 1.36, 87.61 -1.69, 180 0 M20 0 C58.42 -0.92, 98.08 -1.39, 180 0 M180 0 C193.5 -0.09, 199.65 8.04, 200 20 M180 0 C192.58 0.77, 200.98 7.96, 200 20 M200 20 C199.75 35.33, 201.13 47.96, 200 60 M200 20 C199.36 31.63, 200.46 42.57, 200 60 M200 60 C201.64 72.65, 194.32 80.15, 180 80 M200 60 C198.49 75.47, 192.18 81.53, 180 80 M180 80 C130.29 80.47, 75.72 78.99, 20 80 M180 80 C141.16 78.29, 100.57 78.82, 20 80 M20 80 C6.94 80.22, -1.61 72.87, 0 60 M20 80 C7.43 80.6, 1.91 74.43, 0 60 M0 60 C1.21 47.48, -1.19 39.21, 0 20 M0 60 C0.37 47.39, -0.35 32.74, 0 20 M0 20 C0.53 7.35, 7.82 1.25, 20 0 M0 20 C2.18 7.24, 8.26 -1.85, 20 0" stroke="#c92a2a" stroke-width="2" fill="none"></path></g><g transform="translate(1238.88 834) rotate(0 85.12 20)"><text x="85.12" y="14.3203125" font-family="Helvetica, Segoe UI Emoji" font-size="16px" fill="#1e1e1e" text-anchor="middle" style="white-space: pre;" direction="ltr" dominant-baseline="alphabetic">GPIO header</text><text x="85.12" y="34.3203125" font-family="Helvetica, Segoe UI Emoji" font-size="16px" fill="#1e1e1e" text-anchor="middle" style="white-space: pre;" direction="ltr" dominant-baseline="alphabetic">P0–P7 · loader pins</text></g><g stroke-linecap="round" transform="translate(1224 954) rotate(0 100 45)"><path d="M22.5 0 C64.06 -1.39, 106.59 3.56, 177.5 0 C193.44 2.71, 199.64 8.38, 200 22.5 C197.24 33.29, 202.54 40.5, 200 67.5 C201.35 84.04, 195.53 89.32, 177.5 90 C118.46 92, 55.48 95.04, 22.5 90 C6.67 88.34, 1.5 82.54, 0 67.5 C-2.2 52.82, -1.03 37.66, 0 22.5 C-0.68 5.44, 9.71 -0.29, 22.5 0" stroke="none" stroke-width="0" fill="#ffc9c9"></path><path d="M22.5 0 C83.09 0.66, 138.79 1.58, 177.5 0 M22.5 0 C73.09 0.76, 121.78 0.01, 177.5 0 M177.5 0 C192.29 -1.23, 201.39 5.78, 200 22.5 M177.5 0 C194.77 1.45, 200.4 9.38, 200 22.5 M200 22.5 C200.73 35.48, 200.06 48.21, 200 67.5 M200 22.5 C199.41 36.22, 200.91 50.8, 200 67.5 M200 67.5 C198.8 83.23, 192.3 88.64, 177.5 90 M200 67.5 C201.26 80.52, 194.31 88.84, 177.5 90 M177.5 90 C118.07 91.18, 61.7 92.01, 22.5 90 M177.5 90 C124.28 90.64, 69.28 89.65, 22.5 90 M22.5 90 C8.18 89.84, 1.65 83.94, 0 67.5 M22.5 90 C7.78 89.44, -1.77 82.27, 0 67.5 M0 67.5 C-1.52 51.69, -0.95 36.16, 0 22.5 M0 67.5 C0.1 52.23, 0.58 37.84, 0 22.5 M0 22.5 C0.35 8.67, 6.67 -0.08, 22.5 0 M0 22.5 C-2.29 9.05, 8.56 -1.61, 22.5 0" stroke="#c92a2a" stroke-width="2" fill="none"></path></g><g transform="translate(1234.4 969) rotate(0 89.60000000000002 30)"><text x="89.60000000000001" y="14.3203125" font-family="Helvetica, Segoe UI Emoji" font-size="16px" fill="#1e1e1e" text-anchor="middle" style="white-space: pre;" direction="ltr" dominant-baseline="alphabetic">Real peripherals</text><text x="89.60000000000001" y="34.3203125" font-family="Helvetica, Segoe UI Emoji" font-size="16px" fill="#1e1e1e" text-anchor="middle" style="white-space: pre;" direction="ltr" dominant-baseline="alphabetic">USB-UART · SPI flash</text><text x="89.60000000000001" y="54.3203125" font-family="Helvetica, Segoe UI Emoji" font-size="16px" fill="#1e1e1e" text-anchor="middle" style="white-space: pre;" direction="ltr" dominant-baseline="alphabetic">I2C EEPROM / sensor</text></g><g stroke-linecap="round" transform="translate(924 964) rotate(0 125 35)"><path d="M17.5 0 C71.52 -1.33, 123.26 -0.2, 232.5 0 C242.65 -0.64, 248.71 3.07, 250 17.5 C253.42 25.8, 253.14 35.79, 250 52.5 C248.02 60.84, 242.12 70.36, 232.5 70 C179.56 73.04, 123.83 69.28, 17.5 70 C6.89 67.52, 0.08 67.69, 0 52.5 C0.82 41.45, 2.33 33.62, 0 17.5 C2.12 5.52, 7.71 -3.28, 17.5 0" stroke="none" stroke-width="0" fill="#e9ecef"></path><path d="M17.5 0 C80.56 0.54, 147.28 2.28, 232.5 0 M17.5 0 C75.14 1.42, 131.33 0.59, 232.5 0 M232.5 0 C242.17 0.69, 250.72 5.23, 250 17.5 M232.5 0 C244.7 -0.9, 251.2 4.76, 250 17.5 M250 17.5 C249.22 29.08, 248.85 38.64, 250 52.5 M250 17.5 C249.55 25, 249.53 32.46, 250 52.5 M250 52.5 C249.54 65.65, 243.19 68.43, 232.5 70 M250 52.5 C251.62 64.69, 243.96 68.51, 232.5 70 M232.5 70 C183.17 68.01, 130.05 68.68, 17.5 70 M232.5 70 C182.21 70.34, 133.78 69.41, 17.5 70 M17.5 70 C6.32 68.29, -0.87 63.3, 0 52.5 M17.5 70 C6 68.38, -1.61 65.81, 0 52.5 M0 52.5 C-1.83 45.33, 0.56 36.36, 0 17.5 M0 52.5 C0.15 41.73, 0.31 31.39, 0 17.5 M0 17.5 C-1.53 4.95, 4.5 -1.47, 17.5 0 M0 17.5 C1.38 4.44, 5.49 -0.37, 17.5 0" stroke="#495057" stroke-width="2" fill="none"></path></g><g transform="translate(932.52 979) rotate(0 116.48000000000002 20)"><text x="116.48000000000002" y="14.3203125" font-family="Helvetica, Segoe UI Emoji" font-size="16px" fill="#1e1e1e" text-anchor="middle" style="white-space: pre;" direction="ltr" dominant-baseline="alphabetic">Scope / USB logic analyzer</text><text x="116.48000000000002" y="34.3203125" font-family="Helvetica, Segoe UI Emoji" font-size="16px" fill="#1e1e1e" text-anchor="middle" style="white-space: pre;" direction="ltr" dominant-baseline="alphabetic">(sigrok-cli on HPS)</text></g><g stroke-linecap="round" transform="translate(24 954) rotate(0 130 35)"><path d="M17.5 0 C80.29 -4.57, 142.14 -3.34, 242.5 0 C250.76 -2.4, 258.18 3.07, 260 17.5 C259.28 28.97, 260.31 37.12, 260 52.5 C256.74 62.93, 253.65 72.96, 242.5 70 C178.55 70.31, 109.89 67.69, 17.5 70 C7.69 71.29, 2.91 66.37, 0 52.5 C-2.82 41.27, 0.55 32.96, 0 17.5 C-2.37 9.24, 8.6 3.37, 17.5 0" stroke="none" stroke-width="0" fill="#e9ecef"></path><path d="M17.5 0 C94.46 0.94, 172.9 1.04, 242.5 0 M242.5 0 C252.33 -1.68, 260.62 7.65, 260 17.5 M260 17.5 C260.9 28.51, 260.24 42.64, 260 52.5 M260 52.5 C258.07 63.16, 252.76 71.98, 242.5 70 M242.5 70 C161.71 67.99, 83.07 66.75, 17.5 70 M17.5 70 C7.3 68.65, 1.28 64.6, 0 52.5 M0 52.5 C0.38 40.51, -1.16 30.43, 0 17.5 M0 17.5 C1.51 4.27, 6.66 -0.75, 17.5 0" stroke="#495057" stroke-width="2.5" fill="none" stroke-dasharray="8 10"></path></g><g transform="translate(33.03999999999999 969) rotate(0 120.96000000000002 20)"><text x="120.96000000000001" y="14.3203125" font-family="Helvetica, Segoe UI Emoji" font-size="16px" fill="#1e1e1e" text-anchor="middle" style="white-space: pre;" direction="ltr" dominant-baseline="alphabetic">USB-Blaster + Quartus</text><text x="120.96000000000001" y="34.3203125" font-family="Helvetica, Segoe UI Emoji" font-size="16px" fill="#1e1e1e" text-anchor="middle" style="white-space: pre;" direction="ltr" dominant-baseline="alphabetic">Programmer (local fallback)</text></g><g mask="url(#mask-a-062)" stroke-linecap="round"><g transform="translate(264 854) rotate(0 25 0)"><path d="M0 0 C13.55 -2.19, 24.46 -0.12, 50 0 M0 0 C14.13 -0.32, 27.98 0.85, 50 0" stroke="#1e1e1e" stroke-width="2" fill="none"></path></g><g transform="translate(264 854) rotate(0 25 0)"><path d="M26.66 8.96 C33.58 4.66, 37.85 4.49, 50 0 M26.66 8.96 C33.42 5.88, 39.84 4.55, 50 0" stroke="#1e1e1e" stroke-width="2" fill="none"></path></g><g transform="translate(264 854) rotate(0 25 0)"><path d="M26.36 -8.14 C33.34 -8.18, 37.68 -4.09, 50 0 M26.36 -8.14 C33.11 -6.46, 39.62 -3.02, 50 0" stroke="#1e1e1e" stroke-width="2" fill="none"></path></g></g><mask id="mask-a-062"><rect x="0" y="0" fill="#fff" width="414" height="954"></rect><rect x="277.24" y="845.25" fill="#000" width="23.520000000000003" height="17.5" opacity="1"></rect></mask><g transform="translate(277.24 845.25) rotate(0 11.759999999999991 8.406895367414336)"><text x="11.760000000000002" y="12.5302734375" font-family="Helvetica, Segoe UI Emoji" font-size="14px" fill="#1e1e1e" text-anchor="middle" style="white-space: pre;" direction="ltr" dominant-baseline="alphabetic">ssh</text></g><g stroke-linecap="round"><g transform="translate(534 854) rotate(0 25 0)"><path d="M0 0 C21.1 -0.33, 37.86 -0.81, 50 0 M0 0 C16.47 -0.2, 31.18 0.7, 50 0" stroke="#1e1e1e" stroke-width="2" fill="none"></path></g><g transform="translate(534 854) rotate(0 25 0)"><path d="M26.66 8.95 C37.56 5.38, 44.1 1.47, 50 0 M26.66 8.95 C34.54 5.75, 40.74 3.79, 50 0" stroke="#1e1e1e" stroke-width="2" fill="none"></path></g><g transform="translate(534 854) rotate(0 25 0)"><path d="M26.37 -8.15 C37.36 -5.17, 44.01 -2.53, 50 0 M26.37 -8.15 C34.48 -5.88, 40.78 -2.39, 50 0" stroke="#1e1e1e" stroke-width="2" fill="none"></path></g></g><mask></mask><g mask="url(#mask-a-065)" stroke-linecap="round"><g transform="translate(854 854) rotate(0 40 0)"><path d="M0 0 C17.46 -0.11, 34.4 -0.09, 80 0 M0 0 C23.75 -0.81, 49.05 -0.72, 80 0" stroke="#1e1e1e" stroke-width="2" fill="none"></path></g><g transform="translate(854 854) rotate(0 40 0)"><path d="M56.36 8.13 C61.52 6.71, 66.16 4.96, 80 0 M56.36 8.13 C62.84 5.03, 70.91 2.64, 80 0" stroke="#1e1e1e" stroke-width="2" fill="none"></path></g><g transform="translate(854 854) rotate(0 40 0)"><path d="M56.66 -8.97 C61.76 -6.66, 66.34 -4.68, 80 0 M56.66 -8.97 C63.14 -6.84, 71.12 -4.01, 80 0" stroke="#1e1e1e" stroke-width="2" fill="none"></path></g></g><mask id="mask-a-065"><rect x="0" y="0" fill="#fff" width="1034" height="954"></rect><rect x="870.48" y="845.25" fill="#000" width="47.040000000000006" height="17.5" opacity="1"></rect></mask><g transform="translate(870.48 845.25) rotate(0 23.519999999999982 8.463190758895507)"><text x="23.520000000000003" y="12.5302734375" font-family="Helvetica, Segoe UI Emoji" font-size="14px" fill="#1e1e1e" text-anchor="middle" style="white-space: pre;" direction="ltr" dominant-baseline="alphabetic">bridge</text></g><g stroke-linecap="round"><g transform="translate(1164 854) rotate(0 30 0)"><path d="M0 0 C13.96 -0.47, 27.6 -0.05, 60 0 M0 0 C23.29 -0.08, 47.73 -0.93, 60 0" stroke="#1e1e1e" stroke-width="2" fill="none"></path></g><g transform="translate(1164 854) rotate(0 30 0)"><path d="M36.26 7.83 C41.37 5.15, 46.15 3.65, 60 0 M36.26 7.83 C45.46 4.66, 55.74 0.75, 60 0" stroke="#1e1e1e" stroke-width="2" fill="none"></path></g><g transform="translate(1164 854) rotate(0 30 0)"><path d="M36.78 -9.26 C41.71 -7.77, 46.36 -5.08, 60 0 M36.78 -9.26 C45.63 -5.76, 55.7 -3, 60 0" stroke="#1e1e1e" stroke-width="2" fill="none"></path></g></g><mask></mask><g stroke-linecap="round"><g transform="translate(1324 894) rotate(0 0 30)"><path d="M0 0 C-0.53 16.79, 1.2 37.74, 0 60 M0 0 C0.25 22.82, -0.29 45.97, 0 60" stroke="#1e1e1e" stroke-width="2" fill="none"></path></g><g transform="translate(1324 894) rotate(0 0 30)"><path d="M8.8 23.4 C5.31 14.03, 4.28 8.89, 0 0 M8.8 23.4 C5.31 13.74, 1.34 4.42, 0 0" stroke="#1e1e1e" stroke-width="2" fill="none"></path></g><g transform="translate(1324 894) rotate(0 0 30)"><path d="M-8.3 23.58 C-6.44 14.26, -2.11 9.06, 0 0 M-8.3 23.58 C-5.14 13.88, -2.45 4.5, 0 0" stroke="#1e1e1e" stroke-width="2" fill="none"></path></g><g transform="translate(1324 894) rotate(0 0 30)"><path d="M-8.68 36.55 C-6.58 41.95, -2.14 51.47, 0 60 M-8.68 36.55 C-5.19 45.16, -2.35 54.08, 0 60" stroke="#1e1e1e" stroke-width="2" fill="none"></path></g><g transform="translate(1324 894) rotate(0 0 30)"><path d="M8.42 36.46 C5.16 41.79, 4.26 51.33, 0 60 M8.42 36.46 C5.26 45.07, 1.44 54.03, 0 60" stroke="#1e1e1e" stroke-width="2" fill="none"></path></g></g><mask></mask><g stroke-linecap="round"><g transform="translate(1224 999) rotate(0 -25 0)"><path d="M0 0 C-13.03 1.82, -21.31 -0.42, -50 0 M0 0 C-13.54 -0.48, -25.01 -0.71, -50 0" stroke="#1e1e1e" stroke-width="2" fill="none"></path></g><g transform="translate(1224 999) rotate(0 -25 0)"><path d="M-26.69 -9.04 C-33.52 -5.21, -35.59 -5.34, -50 0 M-26.69 -9.04 C-33.32 -7.25, -37.89 -5.14, -50 0" stroke="#1e1e1e" stroke-width="2" fill="none"></path></g><g transform="translate(1224 999) rotate(0 -25 0)"><path d="M-26.33 8.06 C-33.21 7.91, -35.36 3.8, -50 0 M-26.33 8.06 C-33.04 5.42, -37.69 3.1, -50 0" stroke="#1e1e1e" stroke-width="2" fill="none"></path></g></g><mask></mask><g mask="url(#mask-a-070)" stroke-linecap="round"><g transform="translate(924 999) rotate(0 -102.5 -42.5)"><path d="M0 0 C-42.01 2.58, -83.78 -0.3, -140 0 M0 0 C-39.82 -0.93, -77.5 -0.26, -140 0 M-140 0 C-156.62 -1.15, -172.06 0.08, -205 0 M-140 0 C-155.45 0.89, -171.98 0.35, -205 0 M-205 0 C-205.42 -33.17, -206.13 -63.53, -205 -85 M-205 0 C-203.55 -20.41, -203.53 -40.8, -205 -85" stroke="#1e1e1e" stroke-width="2" fill="none"></path></g><g transform="translate(924 999) rotate(0 -102.5 -42.5)"><path d="M-195.81 -61.75 C-198.91 -66.94, -201.73 -76.75, -205 -85 M-195.81 -61.75 C-199.2 -68.66, -200.58 -74.44, -205 -85" stroke="#1e1e1e" stroke-width="2" fill="none"></path></g><g transform="translate(924 999) rotate(0 -102.5 -42.5)"><path d="M-212.91 -61.28 C-210.91 -66.73, -208.64 -76.67, -205 -85 M-212.91 -61.28 C-211.55 -68.26, -208.18 -74.18, -205 -85" stroke="#1e1e1e" stroke-width="2" fill="none"></path></g></g><mask id="mask-a-070"><rect x="0" y="0" fill="#fff" width="1229" height="1184"></rect><rect x="739.74" y="990.25" fill="#000" width="23.520000000000003" height="17.5" opacity="1"></rect></mask><g transform="translate(739.74 990.25) rotate(0 81.45641825630054 -33.20842874554381)"><text x="11.760000000000002" y="12.5302734375" font-family="Helvetica, Segoe UI Emoji" font-size="14px" fill="#1e1e1e" text-anchor="middle" style="white-space: pre;" direction="ltr" dominant-baseline="alphabetic">USB</text></g></svg>
